{"asset": {"version": "2.0", "generator": "CityFlow original procedural car"}, "scene": 0, "scenes": [{"nodes": [0]}], "nodes": [{"mesh": 0}], "meshes": [{"primitives": [{"attributes": {"POSITION": 0, "NORMAL": 1, "COLOR_0": 2}}]}], "buffers": [{"byteLength": 10368, "uri": "data:application/octet-stream;base64,"}], "bufferViews": [{"buffer": 0, "byteOffset": 0, "byteLength": 3456, "target": 34962}, {"buffer": 0, "byteOffset": 3456, "byteLength": 3456, "target": 34962}, {"buffer": 0, "byteOffset": 6912, "byteLength": 3456, "target": 34962}], "accessors": [{"bufferView": 0, "componentType": 5126, "count": 288, "type": "VEC3", "min": [-2.2, -1.03, 0.050000000000000044], "max": [2.24, 1.03, 1.605]}, {"bufferView": 1, "componentType": 5126, "count": 288, "type": "VEC3"}, {"bufferView": 2, "componentType": 5126, "count": 288, "type": "VEC3"}]}